<svg xmlns="http://www.w3.org/2000/svg" width="151" height="47" viewBox="0 0 151 47"><defs><clipPath id="j5paa"><path fill="#fff" d="M30 32.417c0 8.06-6.716 14.593-15 14.593-8.284 0-15-6.532-15-14.593C0 24.36 15-.01 15-.01s15 24.37 15 32.427z"/></clipPath></defs><g><g><g><path fill="#fff" d="M30 32.417c0 8.06-6.716 14.593-15 14.593-8.284 0-15-6.532-15-14.593C0 24.36 15-.01 15-.01s15 24.37 15 32.427z"/><path fill="none" stroke="#fd634e" stroke-linecap="round" stroke-linejoin="round" stroke-miterlimit="50" stroke-width="10" d="M30 32.417c0 8.06-6.716 14.593-15 14.593-8.284 0-15-6.532-15-14.593C0 24.36 15-.01 15-.01v0s15 24.37 15 32.427z" clip-path="url(&quot;#j5paa&quot;)"/></g><g><g><text dominant-baseline="text-before-edge" style="text-transform:uppercase;line-height:24px" fill="#fff" font-family="'AvenirNextRoundedStd-Demi','AvenirNextRoundedStd-Demi'" font-size="24" font-style="none" font-weight="400" transform="translate(43 5)"><tspan style="font-kerning:normal" letter-spacing="2.4">f</tspan><tspan style="font-kerning:normal" letter-spacing="2.4">itness</tspan></text></g></g><g><path fill="#a2ca28" d="M44 30h38v3H44z"/></g></g></g></svg>